<svg width="36" height="36" viewBox="0 0 36 36" fill="none" xmlns="http://www.w3.org/2000/svg">
<path opacity="0.32" fill-rule="evenodd" clip-rule="evenodd" d="M33.75 9C33.75 8.58579 33.4142 8.25 33 8.25H24C23.5858 8.25 23.25 8.58579 23.25 9C23.25 9.41421 23.5858 9.75 24 9.75H33C33.4142 9.75 33.75 9.41421 33.75 9ZM8.25 9C8.25 8.58579 7.91421 8.25 7.5 8.25H3C2.58579 8.25 2.25 8.58579 2.25 9C2.25 9.41421 2.58579 9.75 3 9.75H7.5C7.91421 9.75 8.25 9.41421 8.25 9ZM33.75 27C33.75 26.5858 33.4142 26.25 33 26.25H28.5C28.0858 26.25 27.75 26.5858 27.75 27C27.75 27.4142 28.0858 27.75 28.5 27.75H33C33.4142 27.75 33.75 27.4142 33.75 27ZM12.75 27C12.75 26.5858 12.4142 26.25 12 26.25L3 26.25C2.58579 26.25 2.25 26.5858 2.25 27C2.25 27.4142 2.58579 27.75 3 27.75L12 27.75C12.4142 27.75 12.75 27.4142 12.75 27Z" fill="white"/>
<path d="M15.45 2.25C17.1302 2.25 17.9702 2.25 18.612 2.57698C19.1765 2.8646 19.6354 3.32354 19.923 3.88803C20.25 4.52976 20.25 5.36984 20.25 7.05V10.95C20.25 12.6302 20.25 13.4702 19.923 14.112C19.6354 14.6765 19.1765 15.1354 18.612 15.423C17.9702 15.75 17.1302 15.75 15.45 15.75H11.55C9.86984 15.75 9.02976 15.75 8.38803 15.423C7.82354 15.1354 7.3646 14.6765 7.07698 14.112C6.75 13.4702 6.75 12.6302 6.75 10.95V7.05C6.75 5.36984 6.75 4.52976 7.07698 3.88803C7.3646 3.32354 7.82354 2.8646 8.38803 2.57698C9.02976 2.25 9.86984 2.25 11.55 2.25H15.45Z" fill="white"/>
<path d="M24.45 20.25C26.1302 20.25 26.9702 20.25 27.612 20.577C28.1765 20.8646 28.6354 21.3235 28.923 21.888C29.25 22.5298 29.25 23.3698 29.25 25.05V28.95C29.25 30.6302 29.25 31.4702 28.923 32.112C28.6354 32.6765 28.1765 33.1354 27.612 33.423C26.9702 33.75 26.1302 33.75 24.45 33.75H20.55C18.8698 33.75 18.0298 33.75 17.388 33.423C16.8235 33.1354 16.3646 32.6765 16.077 32.112C15.75 31.4702 15.75 30.6302 15.75 28.95V25.05C15.75 23.3698 15.75 22.5298 16.077 21.888C16.3646 21.3235 16.8235 20.8646 17.388 20.577C18.0298 20.25 18.8698 20.25 20.55 20.25H24.45Z" fill="white"/>
</svg>
