<svg width="24" height="24" viewBox="0 0 24 24" fill="none" xmlns="http://www.w3.org/2000/svg">
<path opacity="0.32" d="M8.45 1.25C5.92976 1.25 4.66965 1.25 3.70704 1.74047C2.86031 2.1719 2.1719 2.86031 1.74047 3.70704C1.25 4.66965 1.25 5.92976 1.25 8.45V15.55C1.25 18.0702 1.25 19.3304 1.74047 20.293C2.1719 21.1397 2.86031 21.8281 3.70704 22.2595C4.66965 22.75 5.92976 22.75 8.45 22.75H15.55C18.0702 22.75 19.3304 22.75 20.293 22.2595C21.1397 21.8281 21.8281 21.1397 22.2595 20.293C22.75 19.3304 22.75 18.0702 22.75 15.55V9.67168C22.75 8.57102 22.75 8.02069 22.6257 7.5028C22.5154 7.04363 22.3336 6.60468 22.0869 6.20206C21.8086 5.74793 21.4195 5.35879 20.6412 4.58051L19.4195 3.35883C18.6412 2.58055 18.2521 2.19141 17.7979 1.91312C17.3953 1.66639 16.9564 1.48457 16.4972 1.37434C15.9793 1.25 15.429 1.25 14.3283 1.25H8.45Z" fill="white"/>
<path d="M8 8C8 8.41421 8.33579 8.75 8.75 8.75H15.25C15.6642 8.75 16 8.41421 16 8V8C16 7.58579 15.6642 7.25 15.25 7.25H8.75C8.33579 7.25 8 7.58579 8 8V8Z" fill="white"/>
<path d="M8 16.2C8 15.0799 8 14.5198 8.21799 14.092C8.40973 13.7157 8.71569 13.4097 9.09202 13.218C9.51984 13 10.0799 13 11.2 13H12.8C13.9201 13 14.4802 13 14.908 13.218C15.2843 13.4097 15.5903 13.7157 15.782 14.092C16 14.5198 16 15.0799 16 16.2V18.6C16 19.4401 16 19.8601 15.8365 20.181C15.6927 20.4632 15.4632 20.6927 15.181 20.8365C14.8601 21 14.4401 21 13.6 21H10.4C9.55992 21 9.13988 21 8.81901 20.8365C8.53677 20.6927 8.3073 20.4632 8.16349 20.181C8 19.8601 8 19.4401 8 18.6V16.2Z" fill="white"/>
</svg>
