<svg width="24" height="24" viewBox="0 0 24 24" fill="none" xmlns="http://www.w3.org/2000/svg">
<path opacity="0.32" d="M9.25 1.25C6.44974 1.25 5.04961 1.25 3.98005 1.79497C3.03924 2.27433 2.27433 3.03924 1.79497 3.98005C1.25 5.04961 1.25 6.44974 1.25 9.25V14.75C1.25 17.5503 1.25 18.9504 1.79497 20.02C2.27433 20.9608 3.03924 21.7257 3.98005 22.205C5.04961 22.75 6.44974 22.75 9.25 22.75H14.75C17.5503 22.75 18.9504 22.75 20.02 22.205C20.9608 21.7257 21.7257 20.9608 22.205 20.02C22.75 18.9504 22.75 17.5503 22.75 14.75V9.25C22.75 6.44974 22.75 5.04961 22.205 3.98005C21.7257 3.03924 20.9608 2.27433 20.02 1.79497C18.9504 1.25 17.5503 1.25 14.75 1.25H9.25Z" fill="white"/>
<path fill-rule="evenodd" clip-rule="evenodd" d="M11.5303 7.46967C11.8232 7.76256 11.8232 8.23743 11.5303 8.53033L8.81064 11.2501H17C17.4142 11.2501 17.75 11.5859 17.75 12.0001C17.75 12.4143 17.4142 12.7501 17 12.7501H8.81066L11.5303 15.4697C11.8232 15.7626 11.8232 16.2375 11.5303 16.5304C11.2374 16.8233 10.7626 16.8233 10.4697 16.5304L6.46967 12.5304C6.17678 12.2375 6.17678 11.7626 6.46967 11.4697L10.4697 7.46967C10.7626 7.17678 11.2374 7.17677 11.5303 7.46967Z" fill="white"/>
</svg>
