<svg width="36" height="36" viewBox="0 0 36 36" fill="none" xmlns="http://www.w3.org/2000/svg">
<path opacity="0.32" fill-rule="evenodd" clip-rule="evenodd" d="M2.25 9C2.25 8.58579 2.58579 8.25 3 8.25H12C12.4142 8.25 12.75 8.58579 12.75 9C12.75 9.41421 12.4142 9.75 12 9.75H3C2.58579 9.75 2.25 9.41421 2.25 9ZM27.75 9C27.75 8.58579 28.0858 8.25 28.5 8.25H33C33.4142 8.25 33.75 8.58579 33.75 9C33.75 9.41421 33.4142 9.75 33 9.75H28.5C28.0858 9.75 27.75 9.41421 27.75 9ZM2.25 27C2.25 26.5858 2.58579 26.25 3 26.25H7.5C7.91421 26.25 8.25 26.5858 8.25 27C8.25 27.4142 7.91421 27.75 7.5 27.75H3C2.58579 27.75 2.25 27.4142 2.25 27ZM23.25 27C23.25 26.5858 23.5858 26.25 24 26.25L33 26.25C33.4142 26.25 33.75 26.5858 33.75 27C33.75 27.4142 33.4142 27.75 33 27.75L24 27.75C23.5858 27.75 23.25 27.4142 23.25 27Z" fill="white"/>
<path d="M20.55 2.25C18.8698 2.25 18.0298 2.25 17.388 2.57698C16.8235 2.8646 16.3646 3.32354 16.077 3.88803C15.75 4.52976 15.75 5.36984 15.75 7.05V10.95C15.75 12.6302 15.75 13.4702 16.077 14.112C16.3646 14.6765 16.8235 15.1354 17.388 15.423C18.0298 15.75 18.8698 15.75 20.55 15.75H24.45C26.1302 15.75 26.9702 15.75 27.612 15.423C28.1765 15.1354 28.6354 14.6765 28.923 14.112C29.25 13.4702 29.25 12.6302 29.25 10.95V7.05C29.25 5.36984 29.25 4.52976 28.923 3.88803C28.6354 3.32354 28.1765 2.8646 27.612 2.57698C26.9702 2.25 26.1302 2.25 24.45 2.25H20.55Z" fill="white"/>
<path d="M11.55 20.25C9.86984 20.25 9.02976 20.25 8.38803 20.577C7.82354 20.8646 7.3646 21.3235 7.07698 21.888C6.75 22.5298 6.75 23.3698 6.75 25.05V28.95C6.75 30.6302 6.75 31.4702 7.07698 32.112C7.3646 32.6765 7.82354 33.1354 8.38803 33.423C9.02976 33.75 9.86984 33.75 11.55 33.75H15.45C17.1302 33.75 17.9702 33.75 18.612 33.423C19.1765 33.1354 19.6354 32.6765 19.923 32.112C20.25 31.4702 20.25 30.6302 20.25 28.95V25.05C20.25 23.3698 20.25 22.5298 19.923 21.888C19.6354 21.3235 19.1765 20.8646 18.612 20.577C17.9702 20.25 17.1302 20.25 15.45 20.25H11.55Z" fill="white"/>
</svg>
